<mxfile host="app.diagrams.net" agent="Mozilla/5.0 (Macintosh; Intel Mac OS X 10_15_7) AppleWebKit/537.36 (KHTML, like Gecko) Chrome/135.0.0.0 Safari/537.36" version="27.0.3">
  <diagram name="Page-1" id="UZqL74F55nvGu-44tBnc">
    <mxGraphModel dx="311" dy="457" grid="1" gridSize="10" guides="1" tooltips="1" connect="1" arrows="1" fold="1" page="1" pageScale="1" pageWidth="850" pageHeight="1100" math="0" shadow="0">
      <root>
        <mxCell id="0" />
        <mxCell id="1" parent="0" />
        <mxCell id="E-F9d6owf79BH6_pcLCn-1" value="User" style="text;html=1;align=center;verticalAlign=middle;whiteSpace=wrap;rounded=0;" vertex="1" parent="1">
          <mxGeometry x="270" y="450" width="60" height="30" as="geometry" />
        </mxCell>
        <mxCell id="E-F9d6owf79BH6_pcLCn-2" value="Membership" style="text;html=1;align=center;verticalAlign=middle;whiteSpace=wrap;rounded=0;" vertex="1" parent="1">
          <mxGeometry x="460" y="370" width="60" height="30" as="geometry" />
        </mxCell>
        <mxCell id="E-F9d6owf79BH6_pcLCn-3" value="" style="endArrow=none;html=1;rounded=0;" edge="1" parent="1">
          <mxGeometry width="50" height="50" relative="1" as="geometry">
            <mxPoint x="300" y="450" as="sourcePoint" />
            <mxPoint x="350" y="400" as="targetPoint" />
          </mxGeometry>
        </mxCell>
        <mxCell id="E-F9d6owf79BH6_pcLCn-4" value="" style="endArrow=none;html=1;rounded=0;" edge="1" parent="1">
          <mxGeometry width="50" height="50" relative="1" as="geometry">
            <mxPoint x="505" y="370" as="sourcePoint" />
            <mxPoint x="455" y="320" as="targetPoint" />
          </mxGeometry>
        </mxCell>
        <mxCell id="E-F9d6owf79BH6_pcLCn-6" value="" style="shape=collate;html=1;rotation=90;" vertex="1" parent="1">
          <mxGeometry x="430" y="294" width="20" height="20" as="geometry" />
        </mxCell>
        <mxCell id="E-F9d6owf79BH6_pcLCn-7" value="" style="endArrow=none;html=1;rounded=0;" edge="1" parent="1">
          <mxGeometry width="50" height="50" relative="1" as="geometry">
            <mxPoint x="375" y="370" as="sourcePoint" />
            <mxPoint x="425" y="320" as="targetPoint" />
          </mxGeometry>
        </mxCell>
        <mxCell id="E-F9d6owf79BH6_pcLCn-8" value="&lt;span style=&quot;text-align: start; text-wrap-mode: nowrap;&quot;&gt;&lt;font face=&quot;Garamond&quot; style=&quot;font-size: 28px;&quot;&gt;σ&lt;/font&gt;&lt;/span&gt;" style="text;html=1;align=center;verticalAlign=middle;whiteSpace=wrap;rounded=0;" vertex="1" parent="1">
          <mxGeometry x="335" y="370" width="60" height="30" as="geometry" />
        </mxCell>
        <mxCell id="E-F9d6owf79BH6_pcLCn-9" value="" style="endArrow=none;html=1;rounded=0;" edge="1" parent="1">
          <mxGeometry width="50" height="50" relative="1" as="geometry">
            <mxPoint x="455" y="290" as="sourcePoint" />
            <mxPoint x="505" y="240" as="targetPoint" />
          </mxGeometry>
        </mxCell>
        <mxCell id="E-F9d6owf79BH6_pcLCn-10" value="ucity = &quot;Seattle&quot;" style="text;html=1;align=center;verticalAlign=middle;whiteSpace=wrap;rounded=0;" vertex="1" parent="1">
          <mxGeometry x="365" y="390" width="60" height="30" as="geometry" />
        </mxCell>
        <mxCell id="E-F9d6owf79BH6_pcLCn-11" value="&lt;div style=&quot;text-align: start;&quot;&gt;&lt;span style=&quot;background-color: transparent; font-size: 28px; text-wrap-mode: nowrap;&quot;&gt;&lt;font face=&quot;Garamond&quot;&gt;π&lt;/font&gt;&lt;/span&gt;&lt;/div&gt;" style="text;html=1;align=center;verticalAlign=middle;whiteSpace=wrap;rounded=0;" vertex="1" parent="1">
          <mxGeometry x="490" y="210" width="60" height="30" as="geometry" />
        </mxCell>
        <mxCell id="E-F9d6owf79BH6_pcLCn-12" value="gid" style="text;html=1;align=center;verticalAlign=middle;whiteSpace=wrap;rounded=0;" vertex="1" parent="1">
          <mxGeometry x="510" y="220" width="60" height="30" as="geometry" />
        </mxCell>
        <mxCell id="E-F9d6owf79BH6_pcLCn-14" value="Group" style="text;html=1;align=center;verticalAlign=middle;whiteSpace=wrap;rounded=0;" vertex="1" parent="1">
          <mxGeometry x="170" y="970" width="60" height="30" as="geometry" />
        </mxCell>
        <mxCell id="E-F9d6owf79BH6_pcLCn-15" value="Membership" style="text;html=1;align=center;verticalAlign=middle;whiteSpace=wrap;rounded=0;" vertex="1" parent="1">
          <mxGeometry x="373" y="890" width="60" height="30" as="geometry" />
        </mxCell>
        <mxCell id="E-F9d6owf79BH6_pcLCn-16" value="" style="endArrow=none;html=1;rounded=0;" edge="1" parent="1">
          <mxGeometry width="50" height="50" relative="1" as="geometry">
            <mxPoint x="200" y="970" as="sourcePoint" />
            <mxPoint x="250" y="920" as="targetPoint" />
          </mxGeometry>
        </mxCell>
        <mxCell id="E-F9d6owf79BH6_pcLCn-17" value="" style="endArrow=none;html=1;rounded=0;" edge="1" parent="1">
          <mxGeometry width="50" height="50" relative="1" as="geometry">
            <mxPoint x="405" y="890" as="sourcePoint" />
            <mxPoint x="355" y="840" as="targetPoint" />
          </mxGeometry>
        </mxCell>
        <mxCell id="E-F9d6owf79BH6_pcLCn-18" value="" style="shape=collate;html=1;rotation=90;" vertex="1" parent="1">
          <mxGeometry x="330" y="814" width="20" height="20" as="geometry" />
        </mxCell>
        <mxCell id="E-F9d6owf79BH6_pcLCn-19" value="" style="endArrow=none;html=1;rounded=0;" edge="1" parent="1">
          <mxGeometry width="50" height="50" relative="1" as="geometry">
            <mxPoint x="275" y="890" as="sourcePoint" />
            <mxPoint x="325" y="840" as="targetPoint" />
          </mxGeometry>
        </mxCell>
        <mxCell id="E-F9d6owf79BH6_pcLCn-20" value="&lt;span style=&quot;text-align: start; text-wrap-mode: nowrap;&quot;&gt;&lt;font face=&quot;Garamond&quot; style=&quot;font-size: 28px;&quot;&gt;σ&lt;/font&gt;&lt;/span&gt;" style="text;html=1;align=center;verticalAlign=middle;whiteSpace=wrap;rounded=0;" vertex="1" parent="1">
          <mxGeometry x="235" y="890" width="60" height="30" as="geometry" />
        </mxCell>
        <mxCell id="E-F9d6owf79BH6_pcLCn-21" value="" style="endArrow=none;html=1;rounded=0;" edge="1" parent="1">
          <mxGeometry width="50" height="50" relative="1" as="geometry">
            <mxPoint x="355" y="810" as="sourcePoint" />
            <mxPoint x="405" y="760" as="targetPoint" />
          </mxGeometry>
        </mxCell>
        <mxCell id="E-F9d6owf79BH6_pcLCn-22" value="gname = &quot;New York Yankee Fans&quot;" style="text;html=1;align=center;verticalAlign=middle;whiteSpace=wrap;rounded=0;" vertex="1" parent="1">
          <mxGeometry x="260" y="917" width="80" height="30" as="geometry" />
        </mxCell>
        <mxCell id="E-F9d6owf79BH6_pcLCn-23" value="&lt;div style=&quot;text-align: start;&quot;&gt;&lt;span style=&quot;background-color: transparent; font-size: 28px; text-wrap-mode: nowrap;&quot;&gt;&lt;font face=&quot;Garamond&quot;&gt;π&lt;/font&gt;&lt;/span&gt;&lt;/div&gt;" style="text;html=1;align=center;verticalAlign=middle;whiteSpace=wrap;rounded=0;" vertex="1" parent="1">
          <mxGeometry x="464" y="654" width="60" height="30" as="geometry" />
        </mxCell>
        <mxCell id="E-F9d6owf79BH6_pcLCn-24" value="" style="shape=collate;html=1;rotation=90;" vertex="1" parent="1">
          <mxGeometry x="413" y="740" width="20" height="20" as="geometry" />
        </mxCell>
        <mxCell id="E-F9d6owf79BH6_pcLCn-25" value="" style="endArrow=none;html=1;rounded=0;" edge="1" parent="1">
          <mxGeometry width="50" height="50" relative="1" as="geometry">
            <mxPoint x="490" y="810" as="sourcePoint" />
            <mxPoint x="440" y="760" as="targetPoint" />
          </mxGeometry>
        </mxCell>
        <mxCell id="E-F9d6owf79BH6_pcLCn-26" value="User" style="text;html=1;align=center;verticalAlign=middle;whiteSpace=wrap;rounded=0;" vertex="1" parent="1">
          <mxGeometry x="544" y="880" width="60" height="30" as="geometry" />
        </mxCell>
        <mxCell id="E-F9d6owf79BH6_pcLCn-27" value="&lt;span style=&quot;text-align: start; text-wrap-mode: nowrap;&quot;&gt;&lt;font face=&quot;Garamond&quot; style=&quot;font-size: 28px;&quot;&gt;σ&lt;/font&gt;&lt;/span&gt;" style="text;html=1;align=center;verticalAlign=middle;whiteSpace=wrap;rounded=0;" vertex="1" parent="1">
          <mxGeometry x="470" y="804" width="60" height="30" as="geometry" />
        </mxCell>
        <mxCell id="E-F9d6owf79BH6_pcLCn-28" value="ucity = &quot;Hoboken&quot;" style="text;html=1;align=center;verticalAlign=middle;whiteSpace=wrap;rounded=0;" vertex="1" parent="1">
          <mxGeometry x="443" y="825" width="60" height="30" as="geometry" />
        </mxCell>
        <mxCell id="E-F9d6owf79BH6_pcLCn-29" value="" style="endArrow=none;html=1;rounded=0;" edge="1" parent="1">
          <mxGeometry width="50" height="50" relative="1" as="geometry">
            <mxPoint x="560" y="884" as="sourcePoint" />
            <mxPoint x="510" y="834" as="targetPoint" />
          </mxGeometry>
        </mxCell>
        <mxCell id="E-F9d6owf79BH6_pcLCn-30" value="" style="endArrow=none;html=1;rounded=0;" edge="1" parent="1">
          <mxGeometry width="50" height="50" relative="1" as="geometry">
            <mxPoint x="430" y="730" as="sourcePoint" />
            <mxPoint x="480" y="680" as="targetPoint" />
          </mxGeometry>
        </mxCell>
        <mxCell id="E-F9d6owf79BH6_pcLCn-31" value="uid" style="text;html=1;align=center;verticalAlign=middle;whiteSpace=wrap;rounded=0;" vertex="1" parent="1">
          <mxGeometry x="483" y="672" width="60" height="30" as="geometry" />
        </mxCell>
        <mxCell id="E-F9d6owf79BH6_pcLCn-32" value="User" style="text;html=1;align=center;verticalAlign=middle;whiteSpace=wrap;rounded=0;" vertex="1" parent="1">
          <mxGeometry x="203" y="1420" width="60" height="30" as="geometry" />
        </mxCell>
        <mxCell id="E-F9d6owf79BH6_pcLCn-33" value="Friendship" style="text;html=1;align=center;verticalAlign=middle;whiteSpace=wrap;rounded=0;" vertex="1" parent="1">
          <mxGeometry x="413" y="1340" width="60" height="30" as="geometry" />
        </mxCell>
        <mxCell id="E-F9d6owf79BH6_pcLCn-34" value="" style="endArrow=none;html=1;rounded=0;" edge="1" parent="1">
          <mxGeometry width="50" height="50" relative="1" as="geometry">
            <mxPoint x="233" y="1420" as="sourcePoint" />
            <mxPoint x="283" y="1370" as="targetPoint" />
          </mxGeometry>
        </mxCell>
        <mxCell id="E-F9d6owf79BH6_pcLCn-35" value="" style="endArrow=none;html=1;rounded=0;" edge="1" parent="1">
          <mxGeometry width="50" height="50" relative="1" as="geometry">
            <mxPoint x="438" y="1340" as="sourcePoint" />
            <mxPoint x="388" y="1290" as="targetPoint" />
          </mxGeometry>
        </mxCell>
        <mxCell id="E-F9d6owf79BH6_pcLCn-36" value="" style="shape=collate;html=1;rotation=90;" vertex="1" parent="1">
          <mxGeometry x="363" y="1264" width="20" height="20" as="geometry" />
        </mxCell>
        <mxCell id="E-F9d6owf79BH6_pcLCn-37" value="" style="endArrow=none;html=1;rounded=0;" edge="1" parent="1">
          <mxGeometry width="50" height="50" relative="1" as="geometry">
            <mxPoint x="308" y="1340" as="sourcePoint" />
            <mxPoint x="358" y="1290" as="targetPoint" />
          </mxGeometry>
        </mxCell>
        <mxCell id="E-F9d6owf79BH6_pcLCn-38" value="&lt;span style=&quot;text-align: start; text-wrap-mode: nowrap;&quot;&gt;&lt;font face=&quot;Garamond&quot; style=&quot;font-size: 28px;&quot;&gt;σ&lt;/font&gt;&lt;/span&gt;" style="text;html=1;align=center;verticalAlign=middle;whiteSpace=wrap;rounded=0;" vertex="1" parent="1">
          <mxGeometry x="268" y="1340" width="60" height="30" as="geometry" />
        </mxCell>
        <mxCell id="E-F9d6owf79BH6_pcLCn-39" value="" style="endArrow=none;html=1;rounded=0;" edge="1" parent="1">
          <mxGeometry width="50" height="50" relative="1" as="geometry">
            <mxPoint x="388" y="1260" as="sourcePoint" />
            <mxPoint x="438" y="1210" as="targetPoint" />
          </mxGeometry>
        </mxCell>
        <mxCell id="E-F9d6owf79BH6_pcLCn-40" value="ucity = &quot;Seattle&quot;" style="text;html=1;align=center;verticalAlign=middle;whiteSpace=wrap;rounded=0;" vertex="1" parent="1">
          <mxGeometry x="298" y="1360" width="60" height="30" as="geometry" />
        </mxCell>
        <mxCell id="E-F9d6owf79BH6_pcLCn-41" value="&lt;div style=&quot;text-align: start;&quot;&gt;&lt;span style=&quot;background-color: transparent; font-size: 28px; text-wrap-mode: nowrap;&quot;&gt;&lt;font face=&quot;Garamond&quot;&gt;G&lt;/font&gt;&lt;/span&gt;&lt;/div&gt;" style="text;html=1;align=center;verticalAlign=middle;whiteSpace=wrap;rounded=0;" vertex="1" parent="1">
          <mxGeometry x="423" y="1180" width="60" height="30" as="geometry" />
        </mxCell>
        <mxCell id="E-F9d6owf79BH6_pcLCn-42" value="count(*)" style="text;html=1;align=center;verticalAlign=middle;whiteSpace=wrap;rounded=0;" vertex="1" parent="1">
          <mxGeometry x="460" y="1190" width="60" height="30" as="geometry" />
        </mxCell>
        <mxCell id="E-F9d6owf79BH6_pcLCn-43" value="User.uid = Friendship.uid1" style="text;html=1;align=center;verticalAlign=middle;whiteSpace=wrap;rounded=0;" vertex="1" parent="1">
          <mxGeometry x="404" y="1259" width="60" height="30" as="geometry" />
        </mxCell>
        <mxCell id="E-F9d6owf79BH6_pcLCn-44" value="uid" style="text;html=1;align=center;verticalAlign=middle;whiteSpace=wrap;rounded=0;" vertex="1" parent="1">
          <mxGeometry x="395" y="1190" width="60" height="30" as="geometry" />
        </mxCell>
      </root>
    </mxGraphModel>
  </diagram>
</mxfile>
